<?xml version="1.0" encoding="utf-8"?>
<svg version="1.2" baseProfile="tiny" id="Logo" xmlns="http://www.w3.org/2000/svg" xmlns:xlink="http://www.w3.org/1999/xlink"
   x="0px" y="0px" viewBox="0 0 311.3 393.4" overflow="visible" xml:space="preserve">
<g>
  <g>
    <path fill="#AC57E9" d="M15.2,30.3h242.5c-8-5.8-16.9-10.9-26.5-15.2h0C208.6,5.1,182.6,0,153.8,0H15.2C6.8,0,0,6.8,0,15.2v0
      C0,23.5,6.8,30.3,15.2,30.3z"/>
    <path fill="#AC57E9" d="M15.2,90.8h288c-3.3-9.2-7.6-17.8-12.8-26c-0.9-1.5-1.9-2.9-2.9-4.3H15.2C6.8,60.5,0,67.3,0,75.7v0
      C0,84,6.8,90.8,15.2,90.8z"/>
    <path fill="#AC57E9" d="M310.2,121h-295C6.8,121,0,127.8,0,136.2v0c0,8.4,6.8,15.2,15.2,15.2h295.7c0.3-3.8,0.4-7.6,0.4-11.5
      C311.3,133.4,310.9,127.2,310.2,121z"/>
    <path fill="#AC57E9" d="M0,196.7L0,196.7c0,8.4,6.8,15.2,15.2,15.2h277c5.7-9.5,10.2-19.6,13.3-30.3H15.2
      C6.8,181.6,0,188.3,0,196.7z"/>
    <path fill="#AC57E9" d="M0,257.2L0,257.2c0,8.4,6.8,15.2,15.2,15.2h194.7c7.4-2.1,14.6-4.7,21.4-7.7c13.4-6,25.4-13.5,35.7-22.6
      H15.2C6.8,242.1,0,248.9,0,257.2z"/>
    <path fill="#AC57E9" d="M132.8,302.6H15.2c-8.4,0-15.2,6.8-15.2,15.2v0c0,8.4,6.8,15.2,15.2,15.2h117.7c8.4,0,15.2-6.8,15.2-15.2
      C148,309.4,141.2,302.6,132.8,302.6z"/>
    <path fill="#AC57E9" d="M132.8,363.1H15.2c-8.4,0-15.2,6.8-15.2,15.2v0c0,8.4,6.8,15.2,15.2,15.2h117.7c8.4,0,15.2-6.8,15.2-15.2
      C148,369.9,141.2,363.1,132.8,363.1z"/>
  </g>
</g>
</svg>